<svg width="1600" height="900" viewBox="0 0 1600 900" fill="none" xmlns="http://www.w3.org/2000/svg">
  <defs>
    <linearGradient id="g" x1="0" y1="0" x2="1600" y2="900" gradientUnits="userSpaceOnUse">
      <stop stop-color="#0b1e52"/>
      <stop offset="1" stop-color="#08122f"/>
    </linearGradient>
    <radialGradient id="r1" cx="0" cy="0" r="1" gradientUnits="userSpaceOnUse" gradientTransform="translate(420 260) rotate(35) scale(520 420)">
      <stop stop-color="#f97316" stop-opacity="0.55"/>
      <stop offset="1" stop-color="#f97316" stop-opacity="0"/>
    </radialGradient>
    <radialGradient id="r2" cx="0" cy="0" r="1" gradientUnits="userSpaceOnUse" gradientTransform="translate(1180 540) rotate(10) scale(640 520)">
      <stop stop-color="#60a5fa" stop-opacity="0.45"/>
      <stop offset="1" stop-color="#60a5fa" stop-opacity="0"/>
    </radialGradient>
    <filter id="blur" x="-20%" y="-20%" width="140%" height="140%" color-interpolation-filters="sRGB">
      <feGaussianBlur stdDeviation="24"/>
    </filter>
  </defs>

  <rect width="1600" height="900" fill="url(#g)"/>
  <g filter="url(#blur)">
    <circle cx="420" cy="260" r="320" fill="url(#r1)"/>
    <circle cx="1180" cy="540" r="380" fill="url(#r2)"/>
    <circle cx="980" cy="210" r="210" fill="#f97316" fill-opacity="0.18"/>
  </g>

  <g opacity="0.10">
    <path d="M0 690C240 630 360 540 560 520C800 496 930 610 1160 610C1320 610 1460 550 1600 520V900H0V690Z" fill="#ffffff"/>
    <path d="M0 735C260 690 410 620 610 610C860 597 1010 700 1240 700C1370 700 1500 660 1600 630V900H0V735Z" fill="#ffffff"/>
  </g>
</svg>
